<svg width="229" height="229" viewBox="0 0 229 229" fill="none" xmlns="http://www.w3.org/2000/svg">
<rect width="1006" height="747" transform="translate(-289 -280)" fill="white"/>
<path d="M5.64645 130.146L225.146 -89.3535" stroke="black"/>
<line x1="5.64645" y1="158.146" x2="225.146" y2="-61.3535" stroke="black"/>
<line x1="5.64645" y1="184.146" x2="225.146" y2="-35.3535" stroke="black"/>
<line x1="5.64645" y1="210.146" x2="225.146" y2="-9.35354" stroke="black"/>
<line x1="5.64645" y1="240.146" x2="225.146" y2="20.6465" stroke="black"/>
<line x1="5.64645" y1="268.146" x2="225.146" y2="48.6465" stroke="black"/>
<line x1="5.64645" y1="294.146" x2="225.146" y2="74.6465" stroke="black"/>
<line x1="5.64645" y1="320.146" x2="225.146" y2="100.646" stroke="black"/>
<line y1="-0.5" x2="310.42" y2="-0.5" transform="matrix(0.707107 0.707107 0.707107 -0.707107 6 101)" stroke="black"/>
<line y1="-0.5" x2="310.42" y2="-0.5" transform="matrix(0.707107 0.707107 0.707107 -0.707107 6 73)" stroke="black"/>
<line y1="-0.5" x2="310.42" y2="-0.5" transform="matrix(0.707107 0.707107 0.707107 -0.707107 6 47)" stroke="black"/>
<line y1="-0.5" x2="310.42" y2="-0.5" transform="matrix(0.707107 0.707107 0.707107 -0.707107 6 21)" stroke="black"/>
<line y1="-0.5" x2="310.42" y2="-0.5" transform="matrix(0.707107 0.707107 0.707107 -0.707107 6 -9)" stroke="black"/>
<line y1="-0.5" x2="310.42" y2="-0.5" transform="matrix(0.707107 0.707107 0.707107 -0.707107 6 -37)" stroke="black"/>
<line y1="-0.5" x2="310.42" y2="-0.5" transform="matrix(0.707107 0.707107 0.707107 -0.707107 6 -63)" stroke="black"/>
<line y1="-0.5" x2="310.42" y2="-0.5" transform="matrix(0.707107 0.707107 0.707107 -0.707107 6 -89)" stroke="black"/>
</svg>
