<svg width="919" height="109" viewBox="0 0 919 109" fill="none" xmlns="http://www.w3.org/2000/svg">
<line x1="0.646447" y1="58.0981" x2="58.0981" y2="0.646469" stroke="black"/>
<line x1="0.646447" y1="65.4268" x2="58.0981" y2="7.97514" stroke="black"/>
<line x1="0.646447" y1="72.232" x2="58.0981" y2="14.7803" stroke="black"/>
<line x1="0.646447" y1="79.0372" x2="58.0981" y2="21.5856" stroke="black"/>
<line x1="0.646447" y1="86.8893" x2="58.0981" y2="29.4377" stroke="black"/>
<line x1="0.646447" y1="94.218" x2="58.0981" y2="36.7664" stroke="black"/>
<line x1="0.646447" y1="101.023" x2="58.0981" y2="43.5716" stroke="black"/>
<line x1="0.646447" y1="107.828" x2="58.0981" y2="50.3768" stroke="black"/>
<line y1="-0.5" x2="81.2489" y2="-0.5" transform="matrix(0.707107 0.707107 0.707107 -0.707107 1 50.7303)" stroke="black"/>
<line y1="-0.5" x2="81.2489" y2="-0.5" transform="matrix(0.707107 0.707107 0.707107 -0.707107 1 43.4017)" stroke="black"/>
<line y1="-0.5" x2="81.2489" y2="-0.5" transform="matrix(0.707107 0.707107 0.707107 -0.707107 1 36.5965)" stroke="black"/>
<line y1="-0.5" x2="81.2489" y2="-0.5" transform="matrix(0.707107 0.707107 0.707107 -0.707107 1 29.7913)" stroke="black"/>
<line y1="-0.5" x2="81.2489" y2="-0.5" transform="matrix(0.707107 0.707107 0.707107 -0.707107 1 21.9391)" stroke="black"/>
<line y1="-0.5" x2="81.2489" y2="-0.5" transform="matrix(0.707107 0.707107 0.707107 -0.707107 1 14.6104)" stroke="black"/>
<line y1="-0.5" x2="81.2489" y2="-0.5" transform="matrix(0.707107 0.707107 0.707107 -0.707107 1 7.80521)" stroke="black"/>
<line y1="-0.5" x2="81.2489" y2="-0.5" transform="matrix(0.707107 0.707107 0.707107 -0.707107 1 1)" stroke="black"/>
<line x1="57.9672" y1="58.0981" x2="115.419" y2="0.646469" stroke="black"/>
<line x1="57.9672" y1="65.4268" x2="115.419" y2="7.97514" stroke="black"/>
<line x1="57.9672" y1="72.232" x2="115.419" y2="14.7803" stroke="black"/>
<line x1="57.9672" y1="79.0372" x2="115.419" y2="21.5856" stroke="black"/>
<line x1="57.9672" y1="86.8893" x2="115.419" y2="29.4377" stroke="black"/>
<line x1="57.9672" y1="94.218" x2="115.419" y2="36.7664" stroke="black"/>
<line x1="57.9672" y1="101.023" x2="115.419" y2="43.5716" stroke="black"/>
<line x1="57.9672" y1="107.828" x2="115.419" y2="50.3768" stroke="black"/>
<line y1="-0.5" x2="81.2489" y2="-0.5" transform="matrix(0.707107 0.707107 0.707107 -0.707107 58.3208 50.7303)" stroke="black"/>
<line y1="-0.5" x2="81.2489" y2="-0.5" transform="matrix(0.707107 0.707107 0.707107 -0.707107 58.3208 43.4017)" stroke="black"/>
<line y1="-0.5" x2="81.2489" y2="-0.5" transform="matrix(0.707107 0.707107 0.707107 -0.707107 58.3208 36.5965)" stroke="black"/>
<line y1="-0.5" x2="81.2489" y2="-0.5" transform="matrix(0.707107 0.707107 0.707107 -0.707107 58.3208 29.7913)" stroke="black"/>
<line y1="-0.5" x2="81.2489" y2="-0.5" transform="matrix(0.707107 0.707107 0.707107 -0.707107 58.3208 21.9391)" stroke="black"/>
<line y1="-0.5" x2="81.2489" y2="-0.5" transform="matrix(0.707107 0.707107 0.707107 -0.707107 58.3208 14.6104)" stroke="black"/>
<line y1="-0.5" x2="81.2489" y2="-0.5" transform="matrix(0.707107 0.707107 0.707107 -0.707107 58.3208 7.80521)" stroke="black"/>
<line y1="-0.5" x2="81.2489" y2="-0.5" transform="matrix(0.707107 0.707107 0.707107 -0.707107 58.3208 1)" stroke="black"/>
<line x1="115.288" y1="58.0981" x2="172.74" y2="0.646469" stroke="black"/>
<line x1="115.288" y1="65.4268" x2="172.74" y2="7.97514" stroke="black"/>
<line x1="115.288" y1="72.232" x2="172.74" y2="14.7803" stroke="black"/>
<line x1="115.288" y1="79.0372" x2="172.74" y2="21.5856" stroke="black"/>
<line x1="115.288" y1="86.8893" x2="172.74" y2="29.4377" stroke="black"/>
<line x1="115.288" y1="94.218" x2="172.74" y2="36.7664" stroke="black"/>
<line x1="115.288" y1="101.023" x2="172.74" y2="43.5716" stroke="black"/>
<line x1="115.288" y1="107.828" x2="172.74" y2="50.3768" stroke="black"/>
<line y1="-0.5" x2="81.2489" y2="-0.5" transform="matrix(0.707107 0.707107 0.707107 -0.707107 115.642 50.7303)" stroke="black"/>
<line y1="-0.5" x2="81.2489" y2="-0.5" transform="matrix(0.707107 0.707107 0.707107 -0.707107 115.642 43.4017)" stroke="black"/>
<line y1="-0.5" x2="81.2489" y2="-0.5" transform="matrix(0.707107 0.707107 0.707107 -0.707107 115.642 36.5965)" stroke="black"/>
<line y1="-0.5" x2="81.2489" y2="-0.5" transform="matrix(0.707107 0.707107 0.707107 -0.707107 115.642 29.7913)" stroke="black"/>
<line y1="-0.5" x2="81.2489" y2="-0.5" transform="matrix(0.707107 0.707107 0.707107 -0.707107 115.642 21.9391)" stroke="black"/>
<line y1="-0.5" x2="81.2489" y2="-0.5" transform="matrix(0.707107 0.707107 0.707107 -0.707107 115.642 14.6104)" stroke="black"/>
<line y1="-0.5" x2="81.2489" y2="-0.5" transform="matrix(0.707107 0.707107 0.707107 -0.707107 115.642 7.80521)" stroke="black"/>
<line y1="-0.5" x2="81.2489" y2="-0.5" transform="matrix(0.707107 0.707107 0.707107 -0.707107 115.642 1)" stroke="black"/>
<line x1="172.609" y1="58.0981" x2="230.06" y2="0.646469" stroke="black"/>
<line x1="172.609" y1="65.4268" x2="230.06" y2="7.97514" stroke="black"/>
<line x1="172.609" y1="72.232" x2="230.06" y2="14.7803" stroke="black"/>
<line x1="172.609" y1="79.0372" x2="230.06" y2="21.5856" stroke="black"/>
<line x1="172.609" y1="86.8893" x2="230.06" y2="29.4377" stroke="black"/>
<line x1="172.609" y1="94.218" x2="230.06" y2="36.7664" stroke="black"/>
<line x1="172.609" y1="101.023" x2="230.06" y2="43.5716" stroke="black"/>
<line x1="172.609" y1="107.828" x2="230.06" y2="50.3768" stroke="black"/>
<line y1="-0.5" x2="81.2489" y2="-0.5" transform="matrix(0.707107 0.707107 0.707107 -0.707107 172.962 50.7303)" stroke="black"/>
<line y1="-0.5" x2="81.2489" y2="-0.5" transform="matrix(0.707107 0.707107 0.707107 -0.707107 172.962 43.4017)" stroke="black"/>
<line y1="-0.5" x2="81.2489" y2="-0.5" transform="matrix(0.707107 0.707107 0.707107 -0.707107 172.962 36.5965)" stroke="black"/>
<line y1="-0.5" x2="81.2489" y2="-0.5" transform="matrix(0.707107 0.707107 0.707107 -0.707107 172.962 29.7913)" stroke="black"/>
<line y1="-0.5" x2="81.2489" y2="-0.5" transform="matrix(0.707107 0.707107 0.707107 -0.707107 172.962 21.9391)" stroke="black"/>
<line y1="-0.5" x2="81.2489" y2="-0.5" transform="matrix(0.707107 0.707107 0.707107 -0.707107 172.962 14.6104)" stroke="black"/>
<line y1="-0.5" x2="81.2489" y2="-0.5" transform="matrix(0.707107 0.707107 0.707107 -0.707107 172.962 7.80521)" stroke="black"/>
<line y1="-0.5" x2="81.2489" y2="-0.5" transform="matrix(0.707107 0.707107 0.707107 -0.707107 172.962 1)" stroke="black"/>
<line x1="230.06" y1="58.0981" x2="287.512" y2="0.646469" stroke="black"/>
<line x1="230.06" y1="65.4268" x2="287.512" y2="7.97514" stroke="black"/>
<line x1="230.06" y1="72.232" x2="287.512" y2="14.7803" stroke="black"/>
<line x1="230.06" y1="79.0372" x2="287.512" y2="21.5856" stroke="black"/>
<line x1="230.06" y1="86.8893" x2="287.512" y2="29.4377" stroke="black"/>
<line x1="230.06" y1="94.218" x2="287.512" y2="36.7664" stroke="black"/>
<line x1="230.06" y1="101.023" x2="287.512" y2="43.5716" stroke="black"/>
<line x1="230.06" y1="107.828" x2="287.512" y2="50.3768" stroke="black"/>
<line y1="-0.5" x2="81.2489" y2="-0.5" transform="matrix(0.707107 0.707107 0.707107 -0.707107 230.414 50.7303)" stroke="black"/>
<line y1="-0.5" x2="81.2489" y2="-0.5" transform="matrix(0.707107 0.707107 0.707107 -0.707107 230.414 43.4017)" stroke="black"/>
<line y1="-0.5" x2="81.2489" y2="-0.5" transform="matrix(0.707107 0.707107 0.707107 -0.707107 230.414 36.5965)" stroke="black"/>
<line y1="-0.5" x2="81.2489" y2="-0.5" transform="matrix(0.707107 0.707107 0.707107 -0.707107 230.414 29.7913)" stroke="black"/>
<line y1="-0.5" x2="81.2489" y2="-0.5" transform="matrix(0.707107 0.707107 0.707107 -0.707107 230.414 21.9391)" stroke="black"/>
<line y1="-0.5" x2="81.2489" y2="-0.5" transform="matrix(0.707107 0.707107 0.707107 -0.707107 230.414 14.6104)" stroke="black"/>
<line y1="-0.5" x2="81.2489" y2="-0.5" transform="matrix(0.707107 0.707107 0.707107 -0.707107 230.414 7.80521)" stroke="black"/>
<line y1="-0.5" x2="81.2489" y2="-0.5" transform="matrix(0.707107 0.707107 0.707107 -0.707107 230.414 1)" stroke="black"/>
<line x1="287.381" y1="58.0981" x2="344.833" y2="0.646469" stroke="black"/>
<line x1="287.381" y1="65.4268" x2="344.833" y2="7.97514" stroke="black"/>
<line x1="287.381" y1="72.232" x2="344.833" y2="14.7803" stroke="black"/>
<line x1="287.381" y1="79.0372" x2="344.833" y2="21.5856" stroke="black"/>
<line x1="287.381" y1="86.8893" x2="344.833" y2="29.4377" stroke="black"/>
<line x1="287.381" y1="94.218" x2="344.833" y2="36.7664" stroke="black"/>
<line x1="287.381" y1="101.023" x2="344.833" y2="43.5716" stroke="black"/>
<line x1="287.381" y1="107.828" x2="344.833" y2="50.3768" stroke="black"/>
<line y1="-0.5" x2="81.2489" y2="-0.5" transform="matrix(0.707107 0.707107 0.707107 -0.707107 287.735 50.7303)" stroke="black"/>
<line y1="-0.5" x2="81.2489" y2="-0.5" transform="matrix(0.707107 0.707107 0.707107 -0.707107 287.735 43.4017)" stroke="black"/>
<line y1="-0.5" x2="81.2489" y2="-0.5" transform="matrix(0.707107 0.707107 0.707107 -0.707107 287.735 36.5965)" stroke="black"/>
<line y1="-0.5" x2="81.2489" y2="-0.5" transform="matrix(0.707107 0.707107 0.707107 -0.707107 287.735 29.7913)" stroke="black"/>
<line y1="-0.5" x2="81.2489" y2="-0.5" transform="matrix(0.707107 0.707107 0.707107 -0.707107 287.735 21.9391)" stroke="black"/>
<line y1="-0.5" x2="81.2489" y2="-0.5" transform="matrix(0.707107 0.707107 0.707107 -0.707107 287.735 14.6104)" stroke="black"/>
<line y1="-0.5" x2="81.2489" y2="-0.5" transform="matrix(0.707107 0.707107 0.707107 -0.707107 287.735 7.80521)" stroke="black"/>
<line y1="-0.5" x2="81.2489" y2="-0.5" transform="matrix(0.707107 0.707107 0.707107 -0.707107 287.735 1)" stroke="black"/>
<line x1="344.702" y1="58.0981" x2="402.154" y2="0.646469" stroke="black"/>
<line x1="344.702" y1="65.4268" x2="402.154" y2="7.97514" stroke="black"/>
<line x1="344.702" y1="72.232" x2="402.154" y2="14.7803" stroke="black"/>
<line x1="344.702" y1="79.0372" x2="402.154" y2="21.5856" stroke="black"/>
<line x1="344.702" y1="86.8893" x2="402.154" y2="29.4377" stroke="black"/>
<line x1="344.702" y1="94.218" x2="402.154" y2="36.7664" stroke="black"/>
<line x1="344.702" y1="101.023" x2="402.154" y2="43.5716" stroke="black"/>
<line x1="344.702" y1="107.828" x2="402.154" y2="50.3768" stroke="black"/>
<line y1="-0.5" x2="81.2489" y2="-0.5" transform="matrix(0.707107 0.707107 0.707107 -0.707107 345.056 50.7303)" stroke="black"/>
<line y1="-0.5" x2="81.2489" y2="-0.5" transform="matrix(0.707107 0.707107 0.707107 -0.707107 345.056 43.4017)" stroke="black"/>
<line y1="-0.5" x2="81.2489" y2="-0.5" transform="matrix(0.707107 0.707107 0.707107 -0.707107 345.056 36.5965)" stroke="black"/>
<line y1="-0.5" x2="81.2489" y2="-0.5" transform="matrix(0.707107 0.707107 0.707107 -0.707107 345.056 29.7913)" stroke="black"/>
<line y1="-0.5" x2="81.2489" y2="-0.5" transform="matrix(0.707107 0.707107 0.707107 -0.707107 345.056 21.9391)" stroke="black"/>
<line y1="-0.5" x2="81.2489" y2="-0.5" transform="matrix(0.707107 0.707107 0.707107 -0.707107 345.056 14.6104)" stroke="black"/>
<line y1="-0.5" x2="81.2489" y2="-0.5" transform="matrix(0.707107 0.707107 0.707107 -0.707107 345.056 7.80521)" stroke="black"/>
<line y1="-0.5" x2="81.2489" y2="-0.5" transform="matrix(0.707107 0.707107 0.707107 -0.707107 345.056 1)" stroke="black"/>
<line x1="402.023" y1="58.0981" x2="459.474" y2="0.646469" stroke="black"/>
<line x1="402.023" y1="65.4268" x2="459.474" y2="7.97514" stroke="black"/>
<line x1="402.023" y1="72.232" x2="459.474" y2="14.7803" stroke="black"/>
<line x1="402.023" y1="79.0372" x2="459.474" y2="21.5856" stroke="black"/>
<line x1="402.023" y1="86.8893" x2="459.474" y2="29.4377" stroke="black"/>
<line x1="402.023" y1="94.218" x2="459.474" y2="36.7664" stroke="black"/>
<line x1="402.023" y1="101.023" x2="459.474" y2="43.5716" stroke="black"/>
<line x1="402.023" y1="107.828" x2="459.474" y2="50.3768" stroke="black"/>
<line y1="-0.5" x2="81.2489" y2="-0.5" transform="matrix(0.707107 0.707107 0.707107 -0.707107 402.376 50.7303)" stroke="black"/>
<line y1="-0.5" x2="81.2489" y2="-0.5" transform="matrix(0.707107 0.707107 0.707107 -0.707107 402.376 43.4017)" stroke="black"/>
<line y1="-0.5" x2="81.2489" y2="-0.5" transform="matrix(0.707107 0.707107 0.707107 -0.707107 402.376 36.5965)" stroke="black"/>
<line y1="-0.5" x2="81.2489" y2="-0.5" transform="matrix(0.707107 0.707107 0.707107 -0.707107 402.376 29.7913)" stroke="black"/>
<line y1="-0.5" x2="81.2489" y2="-0.5" transform="matrix(0.707107 0.707107 0.707107 -0.707107 402.376 21.9391)" stroke="black"/>
<line y1="-0.5" x2="81.2489" y2="-0.5" transform="matrix(0.707107 0.707107 0.707107 -0.707107 402.376 14.6104)" stroke="black"/>
<line y1="-0.5" x2="81.2489" y2="-0.5" transform="matrix(0.707107 0.707107 0.707107 -0.707107 402.376 7.80521)" stroke="black"/>
<line y1="-0.5" x2="81.2489" y2="-0.5" transform="matrix(0.707107 0.707107 0.707107 -0.707107 402.376 1)" stroke="black"/>
<line x1="459.646" y1="58.0981" x2="517.098" y2="0.646469" stroke="black"/>
<line x1="459.646" y1="65.4268" x2="517.098" y2="7.97514" stroke="black"/>
<line x1="459.646" y1="72.232" x2="517.098" y2="14.7803" stroke="black"/>
<line x1="459.646" y1="79.0372" x2="517.098" y2="21.5856" stroke="black"/>
<line x1="459.646" y1="86.8893" x2="517.098" y2="29.4377" stroke="black"/>
<line x1="459.646" y1="94.218" x2="517.098" y2="36.7664" stroke="black"/>
<line x1="459.646" y1="101.023" x2="517.098" y2="43.5716" stroke="black"/>
<line x1="459.646" y1="107.828" x2="517.098" y2="50.3768" stroke="black"/>
<line y1="-0.5" x2="81.2489" y2="-0.5" transform="matrix(0.707107 0.707107 0.707107 -0.707107 460 50.7303)" stroke="black"/>
<line y1="-0.5" x2="81.2489" y2="-0.5" transform="matrix(0.707107 0.707107 0.707107 -0.707107 460 43.4017)" stroke="black"/>
<line y1="-0.5" x2="81.2489" y2="-0.5" transform="matrix(0.707107 0.707107 0.707107 -0.707107 460 36.5965)" stroke="black"/>
<line y1="-0.5" x2="81.2489" y2="-0.5" transform="matrix(0.707107 0.707107 0.707107 -0.707107 460 29.7913)" stroke="black"/>
<line y1="-0.5" x2="81.2489" y2="-0.5" transform="matrix(0.707107 0.707107 0.707107 -0.707107 460 21.9391)" stroke="black"/>
<line y1="-0.5" x2="81.2489" y2="-0.5" transform="matrix(0.707107 0.707107 0.707107 -0.707107 460 14.6104)" stroke="black"/>
<line y1="-0.5" x2="81.2489" y2="-0.5" transform="matrix(0.707107 0.707107 0.707107 -0.707107 460 7.80521)" stroke="black"/>
<line y1="-0.5" x2="81.2489" y2="-0.5" transform="matrix(0.707107 0.707107 0.707107 -0.707107 460 1)" stroke="black"/>
<line x1="516.967" y1="58.0981" x2="574.419" y2="0.646469" stroke="black"/>
<line x1="516.967" y1="65.4268" x2="574.419" y2="7.97514" stroke="black"/>
<line x1="516.967" y1="72.232" x2="574.419" y2="14.7803" stroke="black"/>
<line x1="516.967" y1="79.0372" x2="574.419" y2="21.5856" stroke="black"/>
<line x1="516.967" y1="86.8893" x2="574.419" y2="29.4377" stroke="black"/>
<line x1="516.967" y1="94.218" x2="574.419" y2="36.7664" stroke="black"/>
<line x1="516.967" y1="101.023" x2="574.419" y2="43.5716" stroke="black"/>
<line x1="516.967" y1="107.828" x2="574.419" y2="50.3768" stroke="black"/>
<line y1="-0.5" x2="81.2489" y2="-0.5" transform="matrix(0.707107 0.707107 0.707107 -0.707107 517.321 50.7303)" stroke="black"/>
<line y1="-0.5" x2="81.2489" y2="-0.5" transform="matrix(0.707107 0.707107 0.707107 -0.707107 517.321 43.4017)" stroke="black"/>
<line y1="-0.5" x2="81.2489" y2="-0.5" transform="matrix(0.707107 0.707107 0.707107 -0.707107 517.321 36.5965)" stroke="black"/>
<line y1="-0.5" x2="81.2489" y2="-0.5" transform="matrix(0.707107 0.707107 0.707107 -0.707107 517.321 29.7913)" stroke="black"/>
<line y1="-0.5" x2="81.2489" y2="-0.5" transform="matrix(0.707107 0.707107 0.707107 -0.707107 517.321 21.9391)" stroke="black"/>
<line y1="-0.5" x2="81.2489" y2="-0.5" transform="matrix(0.707107 0.707107 0.707107 -0.707107 517.321 14.6104)" stroke="black"/>
<line y1="-0.5" x2="81.2489" y2="-0.5" transform="matrix(0.707107 0.707107 0.707107 -0.707107 517.321 7.80521)" stroke="black"/>
<line y1="-0.5" x2="81.2489" y2="-0.5" transform="matrix(0.707107 0.707107 0.707107 -0.707107 517.321 1)" stroke="black"/>
<line x1="574.288" y1="58.0981" x2="631.74" y2="0.646469" stroke="black"/>
<line x1="574.288" y1="65.4268" x2="631.74" y2="7.97514" stroke="black"/>
<line x1="574.288" y1="72.232" x2="631.74" y2="14.7803" stroke="black"/>
<line x1="574.288" y1="79.0372" x2="631.74" y2="21.5856" stroke="black"/>
<line x1="574.288" y1="86.8893" x2="631.74" y2="29.4377" stroke="black"/>
<line x1="574.288" y1="94.218" x2="631.74" y2="36.7664" stroke="black"/>
<line x1="574.288" y1="101.023" x2="631.74" y2="43.5716" stroke="black"/>
<line x1="574.288" y1="107.828" x2="631.74" y2="50.3768" stroke="black"/>
<line y1="-0.5" x2="81.2489" y2="-0.5" transform="matrix(0.707107 0.707107 0.707107 -0.707107 574.642 50.7303)" stroke="black"/>
<line y1="-0.5" x2="81.2489" y2="-0.5" transform="matrix(0.707107 0.707107 0.707107 -0.707107 574.642 43.4017)" stroke="black"/>
<line y1="-0.5" x2="81.2489" y2="-0.5" transform="matrix(0.707107 0.707107 0.707107 -0.707107 574.642 36.5965)" stroke="black"/>
<line y1="-0.5" x2="81.2489" y2="-0.5" transform="matrix(0.707107 0.707107 0.707107 -0.707107 574.642 29.7913)" stroke="black"/>
<line y1="-0.5" x2="81.2489" y2="-0.5" transform="matrix(0.707107 0.707107 0.707107 -0.707107 574.642 21.9391)" stroke="black"/>
<line y1="-0.5" x2="81.2489" y2="-0.5" transform="matrix(0.707107 0.707107 0.707107 -0.707107 574.642 14.6104)" stroke="black"/>
<line y1="-0.5" x2="81.2489" y2="-0.5" transform="matrix(0.707107 0.707107 0.707107 -0.707107 574.642 7.80521)" stroke="black"/>
<line y1="-0.5" x2="81.2489" y2="-0.5" transform="matrix(0.707107 0.707107 0.707107 -0.707107 574.642 1)" stroke="black"/>
<line x1="631.609" y1="58.0981" x2="689.06" y2="0.646469" stroke="black"/>
<line x1="631.609" y1="65.4268" x2="689.06" y2="7.97514" stroke="black"/>
<line x1="631.609" y1="72.232" x2="689.06" y2="14.7803" stroke="black"/>
<line x1="631.609" y1="79.0372" x2="689.06" y2="21.5856" stroke="black"/>
<line x1="631.609" y1="86.8893" x2="689.06" y2="29.4377" stroke="black"/>
<line x1="631.609" y1="94.218" x2="689.06" y2="36.7664" stroke="black"/>
<line x1="631.609" y1="101.023" x2="689.06" y2="43.5716" stroke="black"/>
<line x1="631.609" y1="107.828" x2="689.06" y2="50.3768" stroke="black"/>
<line y1="-0.5" x2="81.2489" y2="-0.5" transform="matrix(0.707107 0.707107 0.707107 -0.707107 631.962 50.7303)" stroke="black"/>
<line y1="-0.5" x2="81.2489" y2="-0.5" transform="matrix(0.707107 0.707107 0.707107 -0.707107 631.962 43.4017)" stroke="black"/>
<line y1="-0.5" x2="81.2489" y2="-0.5" transform="matrix(0.707107 0.707107 0.707107 -0.707107 631.962 36.5965)" stroke="black"/>
<line y1="-0.5" x2="81.2489" y2="-0.5" transform="matrix(0.707107 0.707107 0.707107 -0.707107 631.962 29.7913)" stroke="black"/>
<line y1="-0.5" x2="81.2489" y2="-0.5" transform="matrix(0.707107 0.707107 0.707107 -0.707107 631.962 21.9391)" stroke="black"/>
<line y1="-0.5" x2="81.2489" y2="-0.5" transform="matrix(0.707107 0.707107 0.707107 -0.707107 631.962 14.6104)" stroke="black"/>
<line y1="-0.5" x2="81.2489" y2="-0.5" transform="matrix(0.707107 0.707107 0.707107 -0.707107 631.962 7.80521)" stroke="black"/>
<line y1="-0.5" x2="81.2489" y2="-0.5" transform="matrix(0.707107 0.707107 0.707107 -0.707107 631.962 1)" stroke="black"/>
<line x1="689.06" y1="58.0981" x2="746.512" y2="0.646469" stroke="black"/>
<line x1="689.06" y1="65.4268" x2="746.512" y2="7.97514" stroke="black"/>
<line x1="689.06" y1="72.232" x2="746.512" y2="14.7803" stroke="black"/>
<line x1="689.06" y1="79.0372" x2="746.512" y2="21.5856" stroke="black"/>
<line x1="689.06" y1="86.8893" x2="746.512" y2="29.4377" stroke="black"/>
<line x1="689.06" y1="94.218" x2="746.512" y2="36.7664" stroke="black"/>
<line x1="689.06" y1="101.023" x2="746.512" y2="43.5716" stroke="black"/>
<line x1="689.06" y1="107.828" x2="746.512" y2="50.3768" stroke="black"/>
<line y1="-0.5" x2="81.2489" y2="-0.5" transform="matrix(0.707107 0.707107 0.707107 -0.707107 689.414 50.7303)" stroke="black"/>
<line y1="-0.5" x2="81.2489" y2="-0.5" transform="matrix(0.707107 0.707107 0.707107 -0.707107 689.414 43.4017)" stroke="black"/>
<line y1="-0.5" x2="81.2489" y2="-0.5" transform="matrix(0.707107 0.707107 0.707107 -0.707107 689.414 36.5965)" stroke="black"/>
<line y1="-0.5" x2="81.2489" y2="-0.5" transform="matrix(0.707107 0.707107 0.707107 -0.707107 689.414 29.7913)" stroke="black"/>
<line y1="-0.5" x2="81.2489" y2="-0.5" transform="matrix(0.707107 0.707107 0.707107 -0.707107 689.414 21.9391)" stroke="black"/>
<line y1="-0.5" x2="81.2489" y2="-0.5" transform="matrix(0.707107 0.707107 0.707107 -0.707107 689.414 14.6104)" stroke="black"/>
<line y1="-0.5" x2="81.2489" y2="-0.5" transform="matrix(0.707107 0.707107 0.707107 -0.707107 689.414 7.80521)" stroke="black"/>
<line y1="-0.5" x2="81.2489" y2="-0.5" transform="matrix(0.707107 0.707107 0.707107 -0.707107 689.414 1)" stroke="black"/>
<line x1="746.381" y1="58.0981" x2="803.833" y2="0.646469" stroke="black"/>
<line x1="746.381" y1="65.4268" x2="803.833" y2="7.97514" stroke="black"/>
<line x1="746.381" y1="72.232" x2="803.833" y2="14.7803" stroke="black"/>
<line x1="746.381" y1="79.0372" x2="803.833" y2="21.5856" stroke="black"/>
<line x1="746.381" y1="86.8893" x2="803.833" y2="29.4377" stroke="black"/>
<line x1="746.381" y1="94.218" x2="803.833" y2="36.7664" stroke="black"/>
<line x1="746.381" y1="101.023" x2="803.833" y2="43.5716" stroke="black"/>
<line x1="746.381" y1="107.828" x2="803.833" y2="50.3768" stroke="black"/>
<line y1="-0.5" x2="81.2489" y2="-0.5" transform="matrix(0.707107 0.707107 0.707107 -0.707107 746.735 50.7303)" stroke="black"/>
<line y1="-0.5" x2="81.2489" y2="-0.5" transform="matrix(0.707107 0.707107 0.707107 -0.707107 746.735 43.4017)" stroke="black"/>
<line y1="-0.5" x2="81.2489" y2="-0.5" transform="matrix(0.707107 0.707107 0.707107 -0.707107 746.735 36.5965)" stroke="black"/>
<line y1="-0.5" x2="81.2489" y2="-0.5" transform="matrix(0.707107 0.707107 0.707107 -0.707107 746.735 29.7913)" stroke="black"/>
<line y1="-0.5" x2="81.2489" y2="-0.5" transform="matrix(0.707107 0.707107 0.707107 -0.707107 746.735 21.9391)" stroke="black"/>
<line y1="-0.5" x2="81.2489" y2="-0.5" transform="matrix(0.707107 0.707107 0.707107 -0.707107 746.735 14.6104)" stroke="black"/>
<line y1="-0.5" x2="81.2489" y2="-0.5" transform="matrix(0.707107 0.707107 0.707107 -0.707107 746.735 7.80521)" stroke="black"/>
<line y1="-0.5" x2="81.2489" y2="-0.5" transform="matrix(0.707107 0.707107 0.707107 -0.707107 746.735 1)" stroke="black"/>
<line x1="803.702" y1="58.0981" x2="861.154" y2="0.646469" stroke="black"/>
<line x1="803.702" y1="65.4268" x2="861.154" y2="7.97514" stroke="black"/>
<line x1="803.702" y1="72.232" x2="861.154" y2="14.7803" stroke="black"/>
<line x1="803.702" y1="79.0372" x2="861.154" y2="21.5856" stroke="black"/>
<line x1="803.702" y1="86.8893" x2="861.154" y2="29.4377" stroke="black"/>
<line x1="803.702" y1="94.218" x2="861.154" y2="36.7664" stroke="black"/>
<line x1="803.702" y1="101.023" x2="861.154" y2="43.5716" stroke="black"/>
<line x1="803.702" y1="107.828" x2="861.154" y2="50.3768" stroke="black"/>
<line y1="-0.5" x2="81.2489" y2="-0.5" transform="matrix(0.707107 0.707107 0.707107 -0.707107 804.056 50.7303)" stroke="black"/>
<line y1="-0.5" x2="81.2489" y2="-0.5" transform="matrix(0.707107 0.707107 0.707107 -0.707107 804.056 43.4017)" stroke="black"/>
<line y1="-0.5" x2="81.2489" y2="-0.5" transform="matrix(0.707107 0.707107 0.707107 -0.707107 804.056 36.5965)" stroke="black"/>
<line y1="-0.5" x2="81.2489" y2="-0.5" transform="matrix(0.707107 0.707107 0.707107 -0.707107 804.056 29.7913)" stroke="black"/>
<line y1="-0.5" x2="81.2489" y2="-0.5" transform="matrix(0.707107 0.707107 0.707107 -0.707107 804.056 21.9391)" stroke="black"/>
<line y1="-0.5" x2="81.2489" y2="-0.5" transform="matrix(0.707107 0.707107 0.707107 -0.707107 804.056 14.6104)" stroke="black"/>
<line y1="-0.5" x2="81.2489" y2="-0.5" transform="matrix(0.707107 0.707107 0.707107 -0.707107 804.056 7.80521)" stroke="black"/>
<line y1="-0.5" x2="81.2489" y2="-0.5" transform="matrix(0.707107 0.707107 0.707107 -0.707107 804.056 1)" stroke="black"/>
<line x1="861.023" y1="58.0981" x2="918.474" y2="0.646469" stroke="black"/>
<line x1="861.023" y1="65.4268" x2="918.474" y2="7.97514" stroke="black"/>
<line x1="861.023" y1="72.232" x2="918.474" y2="14.7803" stroke="black"/>
<line x1="861.023" y1="79.0372" x2="918.474" y2="21.5856" stroke="black"/>
<line x1="861.023" y1="86.8893" x2="918.474" y2="29.4377" stroke="black"/>
<line x1="861.023" y1="94.218" x2="918.474" y2="36.7664" stroke="black"/>
<line x1="861.023" y1="101.023" x2="918.474" y2="43.5716" stroke="black"/>
<line x1="861.023" y1="107.828" x2="918.474" y2="50.3768" stroke="black"/>
<line y1="-0.5" x2="81.2489" y2="-0.5" transform="matrix(0.707107 0.707107 0.707107 -0.707107 861.376 50.7303)" stroke="black"/>
<line y1="-0.5" x2="81.2489" y2="-0.5" transform="matrix(0.707107 0.707107 0.707107 -0.707107 861.376 43.4017)" stroke="black"/>
<line y1="-0.5" x2="81.2489" y2="-0.5" transform="matrix(0.707107 0.707107 0.707107 -0.707107 861.376 36.5965)" stroke="black"/>
<line y1="-0.5" x2="81.2489" y2="-0.5" transform="matrix(0.707107 0.707107 0.707107 -0.707107 861.376 29.7913)" stroke="black"/>
<line y1="-0.5" x2="81.2489" y2="-0.5" transform="matrix(0.707107 0.707107 0.707107 -0.707107 861.376 21.9391)" stroke="black"/>
<line y1="-0.5" x2="81.2489" y2="-0.5" transform="matrix(0.707107 0.707107 0.707107 -0.707107 861.376 14.6104)" stroke="black"/>
<line y1="-0.5" x2="81.2489" y2="-0.5" transform="matrix(0.707107 0.707107 0.707107 -0.707107 861.376 7.80521)" stroke="black"/>
<line y1="-0.5" x2="81.2489" y2="-0.5" transform="matrix(0.707107 0.707107 0.707107 -0.707107 861.376 1)" stroke="black"/>
</svg>
